<mxfile host="65bd71144e">
    <diagram id="Z68b0Ahdc4-XeEAFRgOF" name="Page-1">
        <mxGraphModel dx="1859" dy="1114" grid="1" gridSize="10" guides="1" tooltips="1" connect="1" arrows="1" fold="1" page="0" pageScale="1" pageWidth="850" pageHeight="1100" math="0" shadow="0">
            <root>
                <mxCell id="0"/>
                <mxCell id="1" parent="0"/>
                <mxCell id="39" value="" style="group" vertex="1" connectable="0" parent="1">
                    <mxGeometry x="-193" y="239" width="1479" height="222.5" as="geometry"/>
                </mxCell>
                <mxCell id="2" value="fcs/aileron-cmd-norm" style="rounded=1;whiteSpace=wrap;html=1;" vertex="1" parent="39">
                    <mxGeometry x="12" y="120" width="140" height="40" as="geometry"/>
                </mxCell>
                <mxCell id="5" value="fcs/roll-sum" style="rounded=1;whiteSpace=wrap;html=1;" vertex="1" parent="39">
                    <mxGeometry x="313" y="120" width="104" height="40" as="geometry"/>
                </mxCell>
                <mxCell id="7" value="" style="edgeStyle=none;html=1;exitX=1;exitY=0.5;exitDx=0;exitDy=0;" edge="1" parent="39" source="9" target="5">
                    <mxGeometry relative="1" as="geometry">
                        <mxPoint x="287" y="140" as="sourcePoint"/>
                    </mxGeometry>
                </mxCell>
                <mxCell id="9" value="&lt;span style=&quot;color: rgb(0, 0, 0); font-family: Helvetica; font-size: 12px; font-style: normal; font-variant-ligatures: normal; font-variant-caps: normal; font-weight: 400; letter-spacing: normal; orphans: 2; text-align: center; text-indent: 0px; text-transform: none; widows: 2; word-spacing: 0px; -webkit-text-stroke-width: 0px; background-color: rgb(255, 255, 255); text-decoration-thickness: initial; text-decoration-style: initial; text-decoration-color: initial; float: none; display: inline !important;&quot;&gt;clip(-1,1)&lt;/span&gt;" style="shape=step;perimeter=stepPerimeter;whiteSpace=wrap;html=1;fixedSize=1;" vertex="1" parent="39">
                    <mxGeometry x="179" y="113" width="98" height="55" as="geometry"/>
                </mxCell>
                <mxCell id="4" value="" style="edgeStyle=none;html=1;entryX=0;entryY=0.5;entryDx=0;entryDy=0;" edge="1" parent="39" source="2" target="9">
                    <mxGeometry relative="1" as="geometry">
                        <mxPoint x="187" y="140" as="targetPoint"/>
                    </mxGeometry>
                </mxCell>
                <mxCell id="11" value="range(-30°,30°)&lt;br style=&quot;border-color: var(--border-color);&quot;&gt;deg2rad" style="shape=step;perimeter=stepPerimeter;whiteSpace=wrap;html=1;fixedSize=1;" vertex="1" parent="39">
                    <mxGeometry x="441" y="113" width="131" height="55" as="geometry"/>
                </mxCell>
                <mxCell id="12" value="" style="edgeStyle=none;html=1;" edge="1" parent="39" source="5" target="11">
                    <mxGeometry relative="1" as="geometry"/>
                </mxCell>
                <mxCell id="13" value="fcs/left-aileron-control&lt;br&gt;(rad, -0.52, 0.52)" style="rounded=1;whiteSpace=wrap;html=1;" vertex="1" parent="39">
                    <mxGeometry x="613" y="60" width="146" height="40" as="geometry"/>
                </mxCell>
                <mxCell id="30" style="edgeStyle=none;html=1;exitX=1;exitY=0.25;exitDx=0;exitDy=0;entryX=0;entryY=1;entryDx=0;entryDy=0;" edge="1" parent="39" source="11" target="13">
                    <mxGeometry relative="1" as="geometry"/>
                </mxCell>
                <mxCell id="17" value="passthrough" style="shape=step;perimeter=stepPerimeter;whiteSpace=wrap;html=1;fixedSize=1;" vertex="1" parent="39">
                    <mxGeometry x="783" y="53.5" width="131" height="55" as="geometry"/>
                </mxCell>
                <mxCell id="18" value="" style="edgeStyle=none;html=1;" edge="1" parent="39" source="13" target="17">
                    <mxGeometry relative="1" as="geometry"/>
                </mxCell>
                <mxCell id="19" value="fcs/left-aileron-pos-rad" style="rounded=1;whiteSpace=wrap;html=1;" vertex="1" parent="39">
                    <mxGeometry x="953" y="60" width="146" height="40" as="geometry"/>
                </mxCell>
                <mxCell id="20" value="" style="edgeStyle=none;html=1;" edge="1" parent="39" source="17" target="19">
                    <mxGeometry relative="1" as="geometry"/>
                </mxCell>
                <mxCell id="22" value="fcs/right-aileron-control&lt;br&gt;(rad, -0.52, 0.52)" style="rounded=1;whiteSpace=wrap;html=1;" vertex="1" parent="39">
                    <mxGeometry x="613" y="176" width="146" height="40" as="geometry"/>
                </mxCell>
                <mxCell id="31" style="edgeStyle=none;html=1;exitX=1;exitY=0.75;exitDx=0;exitDy=0;entryX=0;entryY=0;entryDx=0;entryDy=0;" edge="1" parent="39" source="11" target="22">
                    <mxGeometry relative="1" as="geometry"/>
                </mxCell>
                <mxCell id="24" value="passthrough" style="shape=step;perimeter=stepPerimeter;whiteSpace=wrap;html=1;fixedSize=1;" vertex="1" parent="39">
                    <mxGeometry x="783" y="167.5" width="131" height="55" as="geometry"/>
                </mxCell>
                <mxCell id="21" value="" style="edgeStyle=none;html=1;" edge="1" parent="39" source="22" target="24">
                    <mxGeometry relative="1" as="geometry"/>
                </mxCell>
                <mxCell id="25" value="fcs/right-aileron-pos-rad" style="rounded=1;whiteSpace=wrap;html=1;" vertex="1" parent="39">
                    <mxGeometry x="953" y="176" width="146" height="40" as="geometry"/>
                </mxCell>
                <mxCell id="23" value="" style="edgeStyle=none;html=1;" edge="1" parent="39" source="24" target="25">
                    <mxGeometry relative="1" as="geometry"/>
                </mxCell>
                <mxCell id="32" value="0.5 * (LA + RA)" style="shape=step;perimeter=stepPerimeter;whiteSpace=wrap;html=1;fixedSize=1;" vertex="1" parent="39">
                    <mxGeometry x="1153" y="113.5" width="131" height="55" as="geometry"/>
                </mxCell>
                <mxCell id="33" style="edgeStyle=none;html=1;exitX=1;exitY=0.5;exitDx=0;exitDy=0;entryX=0;entryY=0.25;entryDx=0;entryDy=0;" edge="1" parent="39" source="19" target="32">
                    <mxGeometry relative="1" as="geometry"/>
                </mxCell>
                <mxCell id="34" style="edgeStyle=none;html=1;exitX=1;exitY=0.5;exitDx=0;exitDy=0;entryX=0;entryY=0.75;entryDx=0;entryDy=0;" edge="1" parent="39" source="25" target="32">
                    <mxGeometry relative="1" as="geometry"/>
                </mxCell>
                <mxCell id="35" value="fcs/effective-aileron-pos&lt;br&gt;(rad, -1.04, 1.04)" style="rounded=1;whiteSpace=wrap;html=1;" vertex="1" parent="39">
                    <mxGeometry x="1333" y="120" width="146" height="40" as="geometry"/>
                </mxCell>
                <mxCell id="36" value="" style="edgeStyle=none;html=1;" edge="1" parent="39" source="32" target="35">
                    <mxGeometry relative="1" as="geometry"/>
                </mxCell>
                <mxCell id="38" value="&lt;font style=&quot;font-size: 23px;&quot;&gt;Aileron control diagram&lt;/font&gt;" style="text;html=1;strokeColor=none;fillColor=none;align=center;verticalAlign=middle;whiteSpace=wrap;rounded=0;" vertex="1" parent="39">
                    <mxGeometry width="270" height="30" as="geometry"/>
                </mxCell>
                <mxCell id="86" value="" style="group" vertex="1" connectable="0" parent="1">
                    <mxGeometry x="-166" y="720" width="1223" height="191" as="geometry"/>
                </mxCell>
                <mxCell id="40" value="fcs/elevator-cmd-norm" style="rounded=1;whiteSpace=wrap;html=1;" vertex="1" parent="86">
                    <mxGeometry x="19" y="51" width="140" height="40" as="geometry"/>
                </mxCell>
                <mxCell id="41" value="fcs/pitch-trim-cmd-norm = 0 (only used for trim routine)" style="rounded=1;whiteSpace=wrap;html=1;" vertex="1" parent="86">
                    <mxGeometry y="141" width="157" height="50" as="geometry"/>
                </mxCell>
                <mxCell id="69" value="sum&lt;br&gt;clip(-1,1)" style="shape=step;perimeter=stepPerimeter;whiteSpace=wrap;html=1;fixedSize=1;" vertex="1" parent="86">
                    <mxGeometry x="206" y="93" width="98" height="55" as="geometry"/>
                </mxCell>
                <mxCell id="70" style="edgeStyle=none;html=1;exitX=1;exitY=0.5;exitDx=0;exitDy=0;entryX=0;entryY=0.25;entryDx=0;entryDy=0;fontSize=23;" edge="1" parent="86" source="40" target="69">
                    <mxGeometry relative="1" as="geometry"/>
                </mxCell>
                <mxCell id="71" style="edgeStyle=none;html=1;exitX=1;exitY=0.5;exitDx=0;exitDy=0;entryX=0;entryY=0.75;entryDx=0;entryDy=0;fontSize=23;" edge="1" parent="86" source="41" target="69">
                    <mxGeometry relative="1" as="geometry"/>
                </mxCell>
                <mxCell id="72" value="&lt;font style=&quot;font-size: 23px;&quot;&gt;Elevator control diagram&lt;/font&gt;" style="text;html=1;strokeColor=none;fillColor=none;align=center;verticalAlign=middle;whiteSpace=wrap;rounded=0;" vertex="1" parent="86">
                    <mxGeometry x="7" width="270" height="30" as="geometry"/>
                </mxCell>
                <mxCell id="73" value="fcs/pitch-trim-sum" style="rounded=1;whiteSpace=wrap;html=1;" vertex="1" parent="86">
                    <mxGeometry x="339" y="101" width="140" height="40" as="geometry"/>
                </mxCell>
                <mxCell id="74" value="" style="edgeStyle=none;html=1;fontSize=23;" edge="1" parent="86" source="69" target="73">
                    <mxGeometry relative="1" as="geometry"/>
                </mxCell>
                <mxCell id="75" value="range(-30°,30°)&lt;br style=&quot;border-color: var(--border-color);&quot;&gt;deg2rad" style="shape=step;perimeter=stepPerimeter;whiteSpace=wrap;html=1;fixedSize=1;" vertex="1" parent="86">
                    <mxGeometry x="518" y="93" width="131" height="55" as="geometry"/>
                </mxCell>
                <mxCell id="76" value="" style="edgeStyle=none;html=1;fontSize=23;" edge="1" parent="86" source="73" target="75">
                    <mxGeometry relative="1" as="geometry"/>
                </mxCell>
                <mxCell id="77" value="fcs/elevator-control&lt;br&gt;(rad, -0.52, 0.52)" style="rounded=1;whiteSpace=wrap;html=1;" vertex="1" parent="86">
                    <mxGeometry x="689" y="102" width="140" height="40" as="geometry"/>
                </mxCell>
                <mxCell id="78" value="" style="edgeStyle=none;html=1;fontSize=23;" edge="1" parent="86" source="75" target="77">
                    <mxGeometry relative="1" as="geometry"/>
                </mxCell>
                <mxCell id="80" value="fcs/elevator-pos-rad&lt;br&gt;(rad, -0.52, 0.52)" style="rounded=1;whiteSpace=wrap;html=1;" vertex="1" parent="86">
                    <mxGeometry x="1083" y="102" width="140" height="40" as="geometry"/>
                </mxCell>
                <mxCell id="85" value="" style="edgeStyle=none;html=1;fontSize=23;" edge="1" parent="86" source="83" target="80">
                    <mxGeometry relative="1" as="geometry"/>
                </mxCell>
                <mxCell id="83" value="clip(-0.52,0.52)&lt;br&gt;(i think it's unecessary)" style="shape=step;perimeter=stepPerimeter;whiteSpace=wrap;html=1;fixedSize=1;" vertex="1" parent="86">
                    <mxGeometry x="878" y="93" width="162" height="55" as="geometry"/>
                </mxCell>
                <mxCell id="84" value="" style="edgeStyle=none;html=1;fontSize=23;" edge="1" parent="86" source="77" target="83">
                    <mxGeometry relative="1" as="geometry"/>
                </mxCell>
            </root>
        </mxGraphModel>
    </diagram>
</mxfile>